<?xml version="1.0" encoding="UTF-8" standalone="no"?><!DOCTYPE svg PUBLIC "-//W3C//DTD SVG 1.1//EN" "http://www.w3.org/Graphics/SVG/1.1/DTD/svg11.dtd"><svg width="16" height="16" viewBox="0 0 1001 1001" version="1.1" xmlns="http://www.w3.org/2000/svg" xmlns:xlink="http://www.w3.org/1999/xlink" xml:space="preserve" xmlns:serif="http://www.serif.com/" style="fill-rule:evenodd;clip-rule:evenodd;stroke-linejoin:round;stroke-miterlimit:2;"><rect id="logo-light-null" x="0.537" y="0.924" width="1000" height="1000" style="fill:none;"/><clipPath id="_clip1"><rect x="0.537" y="0.924" width="1000" height="1000"/></clipPath><g clip-path="url(#_clip1)"><g><path d="M171.929,770.09l71.671,-0l-0,-19.24c-20.691,-0.694 -34.704,-5.114 -42.037,-13.26c-7.334,-8.147 -11.001,-19.327 -11.001,-33.54c0,-9.707 1.048,-20.28 3.143,-31.72c2.096,-11.44 7.727,-32.76 16.894,-63.96l86.824,-302.119l97.039,333.839c11.786,40.906 17.679,65.346 17.679,73.32c0,7.28 -1.571,13.78 -4.714,19.5c-3.143,5.72 -7.465,9.793 -12.965,12.22c-7.857,3.466 -20.822,5.373 -38.894,5.72l-0,19.24l258.116,-0l-0,-19.24c-16.501,-0 -29.007,-2.947 -37.52,-8.84c-8.512,-5.894 -16.042,-15.687 -22.59,-29.38c-6.547,-13.694 -15.845,-40.993 -27.893,-81.9l-22.001,-74.88l83.681,-267.279l104.504,342.159c12.833,42.64 19.25,70.546 19.25,83.72c0,10.053 -3.077,18.46 -9.232,25.22c-6.155,6.76 -18.53,10.486 -37.126,11.18l-0,19.24l164.388,-0c-78.31,93.275 -196.49,152.729 -328.608,152.729c-132.119,-0 -250.298,-59.454 -328.608,-152.729Zm494.845,-657.82c153.09,64.1 260.621,214.063 260.621,388.654c-0,83.966 -24.871,162.236 -67.727,228.003c-7.128,-12.664 -19.454,-47.476 -36.977,-104.437l-155.917,-512.22Zm-346.496,6.17l-147.002,512.29c-14.929,49.573 -23.179,76.44 -24.751,80.6c-2.506,6.137 -5.193,11.521 -8.059,16.149c-42.273,-65.448 -66.787,-143.194 -66.787,-226.555c0,-169.188 100.98,-315.25 246.599,-382.484Zm49.886,-19.336c41.086,-13.032 84.904,-20.074 130.373,-20.074c40.757,-0 80.187,5.658 117.554,16.229l-130.519,408.071l-117.408,-404.226Z" style="fill:#a7aaad;"/><path d="M500.537,0.924c275.957,0 500,224.043 500,500c-0,275.958 -224.043,500 -500,500c-275.958,0 -500,-224.042 -500,-500c-0,-275.957 224.042,-500 500,-500Zm-0,25c262.16,0 475,212.841 475,475c-0,262.16 -212.84,475 -475,475c-262.16,0 -475,-212.84 -475,-475c-0,-262.159 212.84,-475 475,-475Z" style="fill:#a7aaad;"/></g></g></svg>